<mxfile host="app.diagrams.net" agent="Mozilla/5.0 (Macintosh; Intel Mac OS X 10_15_7) AppleWebKit/605.1.15 (KHTML, like Gecko) Version/18.2 Safari/605.1.15" version="26.1.1">
  <diagram name="Page-1" id="2YBvvXClWsGukQMizWep">
    <mxGraphModel dx="1829" dy="655" grid="1" gridSize="10" guides="1" tooltips="1" connect="1" arrows="1" fold="1" page="1" pageScale="1" pageWidth="850" pageHeight="1100" math="0" shadow="0">
      <root>
        <mxCell id="0" />
        <mxCell id="1" parent="0" />
        <mxCell id="aM9ryv3xv72pqoxQDRHE-1" value="System zamówień" style="shape=umlLifeline;perimeter=lifelinePerimeter;whiteSpace=wrap;html=1;container=0;dropTarget=0;collapsible=0;recursiveResize=0;outlineConnect=0;portConstraint=eastwest;newEdgeStyle={&quot;edgeStyle&quot;:&quot;elbowEdgeStyle&quot;,&quot;elbow&quot;:&quot;vertical&quot;,&quot;curved&quot;:0,&quot;rounded&quot;:0};" parent="1" vertex="1">
          <mxGeometry x="10" y="60" width="100" height="300" as="geometry" />
        </mxCell>
        <mxCell id="aM9ryv3xv72pqoxQDRHE-2" value="" style="html=1;points=[];perimeter=orthogonalPerimeter;outlineConnect=0;targetShapes=umlLifeline;portConstraint=eastwest;newEdgeStyle={&quot;edgeStyle&quot;:&quot;elbowEdgeStyle&quot;,&quot;elbow&quot;:&quot;vertical&quot;,&quot;curved&quot;:0,&quot;rounded&quot;:0};" parent="aM9ryv3xv72pqoxQDRHE-1" vertex="1">
          <mxGeometry x="45" y="70" width="10" height="190" as="geometry" />
        </mxCell>
        <mxCell id="aM9ryv3xv72pqoxQDRHE-4" value="" style="html=1;points=[];perimeter=orthogonalPerimeter;outlineConnect=0;targetShapes=umlLifeline;portConstraint=eastwest;newEdgeStyle={&quot;edgeStyle&quot;:&quot;elbowEdgeStyle&quot;,&quot;elbow&quot;:&quot;vertical&quot;,&quot;curved&quot;:0,&quot;rounded&quot;:0};" parent="aM9ryv3xv72pqoxQDRHE-1" vertex="1">
          <mxGeometry x="50" y="120" width="10" height="80" as="geometry" />
        </mxCell>
        <mxCell id="aM9ryv3xv72pqoxQDRHE-5" value="Kuchnia" style="shape=umlLifeline;perimeter=lifelinePerimeter;whiteSpace=wrap;html=1;container=0;dropTarget=0;collapsible=0;recursiveResize=0;outlineConnect=0;portConstraint=eastwest;newEdgeStyle={&quot;edgeStyle&quot;:&quot;elbowEdgeStyle&quot;,&quot;elbow&quot;:&quot;vertical&quot;,&quot;curved&quot;:0,&quot;rounded&quot;:0};" parent="1" vertex="1">
          <mxGeometry x="220" y="40" width="100" height="340" as="geometry" />
        </mxCell>
        <mxCell id="aM9ryv3xv72pqoxQDRHE-6" value="" style="html=1;points=[];perimeter=orthogonalPerimeter;outlineConnect=0;targetShapes=umlLifeline;portConstraint=eastwest;newEdgeStyle={&quot;edgeStyle&quot;:&quot;elbowEdgeStyle&quot;,&quot;elbow&quot;:&quot;vertical&quot;,&quot;curved&quot;:0,&quot;rounded&quot;:0};" parent="aM9ryv3xv72pqoxQDRHE-5" vertex="1">
          <mxGeometry x="45" y="80" width="10" height="170" as="geometry" />
        </mxCell>
        <mxCell id="aM9ryv3xv72pqoxQDRHE-7" value="1. zloz zamowienie&amp;nbsp;&lt;div&gt;String zamówienia&lt;/div&gt;" style="html=1;verticalAlign=bottom;endArrow=block;edgeStyle=elbowEdgeStyle;elbow=vertical;curved=0;rounded=0;" parent="1" edge="1">
          <mxGeometry x="-0.3125" y="65" relative="1" as="geometry">
            <mxPoint x="-90" y="210" as="sourcePoint" />
            <Array as="points">
              <mxPoint x="-70" y="205" />
            </Array>
            <mxPoint x="65" y="205" as="targetPoint" />
            <mxPoint as="offset" />
          </mxGeometry>
        </mxCell>
        <mxCell id="aM9ryv3xv72pqoxQDRHE-8" value="return" style="html=1;verticalAlign=bottom;endArrow=open;dashed=1;endSize=8;edgeStyle=elbowEdgeStyle;elbow=vertical;curved=0;rounded=0;" parent="1" source="aM9ryv3xv72pqoxQDRHE-6" target="aM9ryv3xv72pqoxQDRHE-2" edge="1">
          <mxGeometry relative="1" as="geometry">
            <mxPoint x="195" y="205" as="targetPoint" />
            <Array as="points">
              <mxPoint x="190" y="280" />
            </Array>
          </mxGeometry>
        </mxCell>
        <mxCell id="jwzx9WgDbF4AYH0GWY2g-1" value="Klient" style="shape=umlActor;verticalLabelPosition=bottom;verticalAlign=top;html=1;outlineConnect=0;" vertex="1" parent="1">
          <mxGeometry x="-120" y="30" width="30" height="60" as="geometry" />
        </mxCell>
        <mxCell id="jwzx9WgDbF4AYH0GWY2g-2" value="Restauracja" style="shape=umlLifeline;perimeter=lifelinePerimeter;whiteSpace=wrap;html=1;container=0;dropTarget=0;collapsible=0;recursiveResize=0;outlineConnect=0;portConstraint=eastwest;newEdgeStyle={&quot;edgeStyle&quot;:&quot;elbowEdgeStyle&quot;,&quot;elbow&quot;:&quot;vertical&quot;,&quot;curved&quot;:0,&quot;rounded&quot;:0};" vertex="1" parent="1">
          <mxGeometry x="670" y="40" width="100" height="300" as="geometry" />
        </mxCell>
        <mxCell id="jwzx9WgDbF4AYH0GWY2g-3" value="" style="html=1;points=[];perimeter=orthogonalPerimeter;outlineConnect=0;targetShapes=umlLifeline;portConstraint=eastwest;newEdgeStyle={&quot;edgeStyle&quot;:&quot;elbowEdgeStyle&quot;,&quot;elbow&quot;:&quot;vertical&quot;,&quot;curved&quot;:0,&quot;rounded&quot;:0};" vertex="1" parent="jwzx9WgDbF4AYH0GWY2g-2">
          <mxGeometry x="45" y="80" width="10" height="170" as="geometry" />
        </mxCell>
        <mxCell id="jwzx9WgDbF4AYH0GWY2g-7" value="" style="html=1;points=[];perimeter=orthogonalPerimeter;outlineConnect=0;targetShapes=umlLifeline;portConstraint=eastwest;newEdgeStyle={&quot;edgeStyle&quot;:&quot;elbowEdgeStyle&quot;,&quot;elbow&quot;:&quot;vertical&quot;,&quot;curved&quot;:0,&quot;rounded&quot;:0};" vertex="1" parent="1">
          <mxGeometry x="-110" y="110" width="10" height="280" as="geometry" />
        </mxCell>
        <mxCell id="jwzx9WgDbF4AYH0GWY2g-8" value="return" style="html=1;verticalAlign=bottom;endArrow=open;dashed=1;endSize=8;edgeStyle=elbowEdgeStyle;elbow=vertical;curved=0;rounded=0;" edge="1" parent="1">
          <mxGeometry x="0.1" y="10" relative="1" as="geometry">
            <mxPoint x="-110" y="170" as="targetPoint" />
            <Array as="points">
              <mxPoint x="15" y="170" />
            </Array>
            <mxPoint x="90" y="170" as="sourcePoint" />
            <mxPoint as="offset" />
          </mxGeometry>
        </mxCell>
        <mxCell id="jwzx9WgDbF4AYH0GWY2g-9" value="2. Przetworz zamowienie&amp;nbsp;&lt;div&gt;String zamowienie, int idKlienta&lt;/div&gt;" style="html=1;verticalAlign=bottom;endArrow=block;edgeStyle=elbowEdgeStyle;elbow=horizontal;curved=0;rounded=0;" edge="1" parent="1">
          <mxGeometry x="-1" y="110" relative="1" as="geometry">
            <mxPoint x="90" y="250" as="sourcePoint" />
            <Array as="points">
              <mxPoint x="175" y="250" />
            </Array>
            <mxPoint x="260" y="250" as="targetPoint" />
            <mxPoint x="-110" y="100" as="offset" />
          </mxGeometry>
        </mxCell>
        <mxCell id="jwzx9WgDbF4AYH0GWY2g-10" value="3. Przygotuj posiłek&amp;nbsp;&lt;div&gt;String zamowienie, int idKlienta&lt;/div&gt;" style="html=1;verticalAlign=bottom;endArrow=block;edgeStyle=elbowEdgeStyle;elbow=horizontal;curved=0;rounded=0;" edge="1" parent="1">
          <mxGeometry x="-1" y="170" relative="1" as="geometry">
            <mxPoint x="350" y="250" as="sourcePoint" />
            <Array as="points">
              <mxPoint x="530" y="260" />
            </Array>
            <mxPoint x="719.5" y="249.5" as="targetPoint" />
            <mxPoint x="-170" y="160" as="offset" />
          </mxGeometry>
        </mxCell>
        <mxCell id="jwzx9WgDbF4AYH0GWY2g-12" value="4. dostarcz zamowienie&amp;nbsp;&lt;div&gt;int idKlienta&lt;/div&gt;" style="html=1;verticalAlign=bottom;endArrow=block;edgeStyle=elbowEdgeStyle;elbow=horizontal;curved=0;rounded=0;" edge="1" parent="1">
          <mxGeometry x="-1" y="420" relative="1" as="geometry">
            <mxPoint x="620" y="540" as="sourcePoint" />
            <Array as="points">
              <mxPoint x="705" y="540" />
            </Array>
            <mxPoint x="820" y="540" as="targetPoint" />
            <mxPoint x="-330" y="160" as="offset" />
          </mxGeometry>
        </mxCell>
        <mxCell id="jwzx9WgDbF4AYH0GWY2g-19" value="" style="edgeStyle=segmentEdgeStyle;endArrow=classic;html=1;curved=0;rounded=0;endSize=8;startSize=8;fontSize=12;" edge="1" parent="1">
          <mxGeometry width="50" height="50" relative="1" as="geometry">
            <mxPoint x="-100" y="220" as="sourcePoint" />
            <mxPoint x="-50" y="160" as="targetPoint" />
            <Array as="points">
              <mxPoint x="-100" y="110" />
              <mxPoint x="-50" y="110" />
            </Array>
          </mxGeometry>
        </mxCell>
        <mxCell id="jwzx9WgDbF4AYH0GWY2g-20" value="" style="edgeStyle=segmentEdgeStyle;endArrow=classic;html=1;curved=0;rounded=0;endSize=8;startSize=8;fontSize=12;" edge="1" parent="1">
          <mxGeometry width="50" height="50" relative="1" as="geometry">
            <mxPoint x="-60" y="160" as="sourcePoint" />
            <mxPoint x="-100" y="160" as="targetPoint" />
            <Array as="points">
              <mxPoint x="-100" y="160" />
              <mxPoint x="-90" y="160" />
            </Array>
          </mxGeometry>
        </mxCell>
        <mxCell id="jwzx9WgDbF4AYH0GWY2g-21" value="return" style="html=1;verticalAlign=bottom;endArrow=open;dashed=1;endSize=8;edgeStyle=elbowEdgeStyle;elbow=vertical;curved=0;rounded=0;" edge="1" parent="1">
          <mxGeometry relative="1" as="geometry">
            <mxPoint x="-110" y="310" as="targetPoint" />
            <Array as="points">
              <mxPoint x="15" y="310" />
            </Array>
            <mxPoint x="50" y="310" as="sourcePoint" />
          </mxGeometry>
        </mxCell>
        <mxCell id="jwzx9WgDbF4AYH0GWY2g-22" value="" style="edgeStyle=segmentEdgeStyle;endArrow=classic;html=1;curved=0;rounded=0;endSize=8;startSize=8;fontSize=12;" edge="1" parent="1">
          <mxGeometry width="50" height="50" relative="1" as="geometry">
            <mxPoint x="270" y="290" as="sourcePoint" />
            <mxPoint x="320" y="290" as="targetPoint" />
            <Array as="points">
              <mxPoint x="270" y="240" />
              <mxPoint x="320" y="240" />
            </Array>
          </mxGeometry>
        </mxCell>
        <mxCell id="jwzx9WgDbF4AYH0GWY2g-23" value="" style="edgeStyle=segmentEdgeStyle;endArrow=classic;html=1;curved=0;rounded=0;endSize=8;startSize=8;fontSize=12;" edge="1" parent="1">
          <mxGeometry width="50" height="50" relative="1" as="geometry">
            <mxPoint x="310" y="290" as="sourcePoint" />
            <mxPoint x="270" y="290" as="targetPoint" />
            <Array as="points">
              <mxPoint x="270" y="290" />
              <mxPoint x="280" y="290" />
            </Array>
          </mxGeometry>
        </mxCell>
        <mxCell id="jwzx9WgDbF4AYH0GWY2g-24" value="&lt;span style=&quot;font-style: italic; white-space: nowrap; background-color: rgb(236, 236, 236);&quot;&gt;Wniosek&lt;/span&gt;" style="shape=umlLifeline;perimeter=lifelinePerimeter;whiteSpace=wrap;html=1;container=0;dropTarget=0;collapsible=0;recursiveResize=0;outlineConnect=0;portConstraint=eastwest;newEdgeStyle={&quot;edgeStyle&quot;:&quot;elbowEdgeStyle&quot;,&quot;elbow&quot;:&quot;vertical&quot;,&quot;curved&quot;:0,&quot;rounded&quot;:0};" vertex="1" parent="1">
          <mxGeometry x="-50" y="440" width="100" height="300" as="geometry" />
        </mxCell>
        <mxCell id="jwzx9WgDbF4AYH0GWY2g-25" value="" style="html=1;points=[];perimeter=orthogonalPerimeter;outlineConnect=0;targetShapes=umlLifeline;portConstraint=eastwest;newEdgeStyle={&quot;edgeStyle&quot;:&quot;elbowEdgeStyle&quot;,&quot;elbow&quot;:&quot;vertical&quot;,&quot;curved&quot;:0,&quot;rounded&quot;:0};" vertex="1" parent="jwzx9WgDbF4AYH0GWY2g-24">
          <mxGeometry x="45" y="70" width="10" height="190" as="geometry" />
        </mxCell>
        <mxCell id="jwzx9WgDbF4AYH0GWY2g-26" value="" style="html=1;points=[];perimeter=orthogonalPerimeter;outlineConnect=0;targetShapes=umlLifeline;portConstraint=eastwest;newEdgeStyle={&quot;edgeStyle&quot;:&quot;elbowEdgeStyle&quot;,&quot;elbow&quot;:&quot;vertical&quot;,&quot;curved&quot;:0,&quot;rounded&quot;:0};" vertex="1" parent="jwzx9WgDbF4AYH0GWY2g-24">
          <mxGeometry x="50" y="120" width="10" height="80" as="geometry" />
        </mxCell>
        <mxCell id="jwzx9WgDbF4AYH0GWY2g-28" value="1. zloz wniosek()&amp;nbsp;&lt;div&gt;lista wnioski,&amp;nbsp;&lt;span style=&quot;font-size: 12px; text-align: left; background-color: rgb(236, 236, 236);&quot;&gt;&amp;nbsp;id_wniosku: Int&lt;/span&gt;&lt;/div&gt;&lt;span style=&quot;font-size: 12px; text-align: left; background-color: rgb(236, 236, 236);&quot;&gt;id_dewelopera: Int&lt;/span&gt;&lt;br style=&quot;padding: 0px; margin: 0px; font-size: 12px; text-align: left;&quot;&gt;&lt;span style=&quot;font-size: 12px; text-align: left; background-color: rgb(236, 236, 236);&quot;&gt;id_inwestycji: Int&lt;/span&gt;" style="html=1;verticalAlign=bottom;endArrow=block;edgeStyle=elbowEdgeStyle;elbow=vertical;curved=0;rounded=0;" edge="1" parent="1" target="jwzx9WgDbF4AYH0GWY2g-24">
          <mxGeometry x="0.0245" y="10" relative="1" as="geometry">
            <mxPoint x="-220" y="555" as="sourcePoint" />
            <Array as="points">
              <mxPoint x="-200" y="550" />
            </Array>
            <mxPoint x="-65" y="550" as="targetPoint" />
            <mxPoint as="offset" />
          </mxGeometry>
        </mxCell>
        <mxCell id="jwzx9WgDbF4AYH0GWY2g-29" value="return" style="html=1;verticalAlign=bottom;endArrow=open;dashed=1;endSize=8;edgeStyle=elbowEdgeStyle;elbow=vertical;curved=0;rounded=0;" edge="1" parent="1">
          <mxGeometry relative="1" as="geometry">
            <mxPoint x="-210" y="930" as="targetPoint" />
            <Array as="points">
              <mxPoint x="-85" y="930" />
            </Array>
            <mxPoint x="-10" y="930" as="sourcePoint" />
          </mxGeometry>
        </mxCell>
        <mxCell id="jwzx9WgDbF4AYH0GWY2g-30" value="Deweloper" style="shape=umlActor;verticalLabelPosition=bottom;verticalAlign=top;html=1;outlineConnect=0;" vertex="1" parent="1">
          <mxGeometry x="-260" y="410" width="30" height="60" as="geometry" />
        </mxCell>
        <mxCell id="jwzx9WgDbF4AYH0GWY2g-31" value="return" style="html=1;verticalAlign=bottom;endArrow=open;dashed=1;endSize=8;edgeStyle=elbowEdgeStyle;elbow=vertical;curved=0;rounded=0;" edge="1" parent="1">
          <mxGeometry x="0.1" y="10" relative="1" as="geometry">
            <mxPoint x="-220" y="570" as="targetPoint" />
            <Array as="points">
              <mxPoint x="-95" y="570" />
            </Array>
            <mxPoint x="-20" y="570" as="sourcePoint" />
            <mxPoint as="offset" />
          </mxGeometry>
        </mxCell>
        <mxCell id="jwzx9WgDbF4AYH0GWY2g-32" value="2. Dodaj dokumenty&amp;nbsp;&lt;div&gt;lista dokumenty&lt;/div&gt;" style="html=1;verticalAlign=bottom;endArrow=block;edgeStyle=elbowEdgeStyle;elbow=horizontal;curved=0;rounded=0;entryX=0.175;entryY=-0.154;entryDx=0;entryDy=0;entryPerimeter=0;" edge="1" parent="1" target="jwzx9WgDbF4AYH0GWY2g-64">
          <mxGeometry x="-0.3846" y="6" relative="1" as="geometry">
            <mxPoint x="-240" y="660" as="sourcePoint" />
            <Array as="points">
              <mxPoint x="-155" y="660" />
            </Array>
            <mxPoint x="-0.5" y="660" as="targetPoint" />
            <mxPoint as="offset" />
          </mxGeometry>
        </mxCell>
        <mxCell id="jwzx9WgDbF4AYH0GWY2g-33" value="" style="edgeStyle=segmentEdgeStyle;endArrow=classic;html=1;curved=0;rounded=0;endSize=8;startSize=8;fontSize=12;" edge="1" parent="1">
          <mxGeometry width="50" height="50" relative="1" as="geometry">
            <mxPoint x="-470" y="650" as="sourcePoint" />
            <mxPoint x="-420" y="590" as="targetPoint" />
            <Array as="points">
              <mxPoint x="-470" y="540" />
              <mxPoint x="-420" y="540" />
            </Array>
          </mxGeometry>
        </mxCell>
        <mxCell id="jwzx9WgDbF4AYH0GWY2g-34" value="" style="edgeStyle=segmentEdgeStyle;endArrow=classic;html=1;curved=0;rounded=0;endSize=8;startSize=8;fontSize=12;" edge="1" parent="1">
          <mxGeometry width="50" height="50" relative="1" as="geometry">
            <mxPoint x="-430" y="589.5" as="sourcePoint" />
            <mxPoint x="-470" y="589.5" as="targetPoint" />
            <Array as="points">
              <mxPoint x="-470" y="589.5" />
              <mxPoint x="-460" y="589.5" />
            </Array>
          </mxGeometry>
        </mxCell>
        <mxCell id="jwzx9WgDbF4AYH0GWY2g-35" value="return" style="html=1;verticalAlign=bottom;endArrow=open;dashed=1;endSize=8;edgeStyle=elbowEdgeStyle;elbow=vertical;curved=0;rounded=0;" edge="1" parent="1" target="jwzx9WgDbF4AYH0GWY2g-41">
          <mxGeometry relative="1" as="geometry">
            <mxPoint x="-170" y="690" as="targetPoint" />
            <Array as="points">
              <mxPoint x="-45" y="690" />
            </Array>
            <mxPoint x="-10" y="690" as="sourcePoint" />
          </mxGeometry>
        </mxCell>
        <mxCell id="jwzx9WgDbF4AYH0GWY2g-36" value="" style="edgeStyle=segmentEdgeStyle;endArrow=classic;html=1;curved=0;rounded=0;endSize=8;startSize=8;fontSize=12;" edge="1" parent="1">
          <mxGeometry width="50" height="50" relative="1" as="geometry">
            <mxPoint y="560" as="sourcePoint" />
            <mxPoint x="50" y="560" as="targetPoint" />
            <Array as="points">
              <mxPoint y="510" />
              <mxPoint x="50" y="510" />
            </Array>
          </mxGeometry>
        </mxCell>
        <mxCell id="jwzx9WgDbF4AYH0GWY2g-37" value="" style="edgeStyle=segmentEdgeStyle;endArrow=classic;html=1;curved=0;rounded=0;endSize=8;startSize=8;fontSize=12;" edge="1" parent="1" target="jwzx9WgDbF4AYH0GWY2g-64">
          <mxGeometry width="50" height="50" relative="1" as="geometry">
            <mxPoint x="290" y="690" as="sourcePoint" />
            <mxPoint x="250" y="690" as="targetPoint" />
            <Array as="points">
              <mxPoint x="250" y="690" />
              <mxPoint x="260" y="690" />
            </Array>
          </mxGeometry>
        </mxCell>
        <mxCell id="jwzx9WgDbF4AYH0GWY2g-38" value="&lt;span style=&quot;font-style: italic; white-space: nowrap; background-color: rgb(236, 236, 236);&quot;&gt;Inwestycja&lt;/span&gt;" style="shape=umlLifeline;perimeter=lifelinePerimeter;whiteSpace=wrap;html=1;container=0;dropTarget=0;collapsible=0;recursiveResize=0;outlineConnect=0;portConstraint=eastwest;newEdgeStyle={&quot;edgeStyle&quot;:&quot;elbowEdgeStyle&quot;,&quot;elbow&quot;:&quot;vertical&quot;,&quot;curved&quot;:0,&quot;rounded&quot;:0};" vertex="1" parent="1">
          <mxGeometry x="-50" y="710" width="100" height="300" as="geometry" />
        </mxCell>
        <mxCell id="jwzx9WgDbF4AYH0GWY2g-39" value="" style="html=1;points=[];perimeter=orthogonalPerimeter;outlineConnect=0;targetShapes=umlLifeline;portConstraint=eastwest;newEdgeStyle={&quot;edgeStyle&quot;:&quot;elbowEdgeStyle&quot;,&quot;elbow&quot;:&quot;vertical&quot;,&quot;curved&quot;:0,&quot;rounded&quot;:0};" vertex="1" parent="jwzx9WgDbF4AYH0GWY2g-38">
          <mxGeometry x="45" y="70" width="10" height="190" as="geometry" />
        </mxCell>
        <mxCell id="jwzx9WgDbF4AYH0GWY2g-40" value="" style="html=1;points=[];perimeter=orthogonalPerimeter;outlineConnect=0;targetShapes=umlLifeline;portConstraint=eastwest;newEdgeStyle={&quot;edgeStyle&quot;:&quot;elbowEdgeStyle&quot;,&quot;elbow&quot;:&quot;vertical&quot;,&quot;curved&quot;:0,&quot;rounded&quot;:0};" vertex="1" parent="jwzx9WgDbF4AYH0GWY2g-38">
          <mxGeometry x="50" y="120" width="10" height="80" as="geometry" />
        </mxCell>
        <mxCell id="jwzx9WgDbF4AYH0GWY2g-41" value="" style="html=1;points=[];perimeter=orthogonalPerimeter;outlineConnect=0;targetShapes=umlLifeline;portConstraint=eastwest;newEdgeStyle={&quot;edgeStyle&quot;:&quot;elbowEdgeStyle&quot;,&quot;elbow&quot;:&quot;vertical&quot;,&quot;curved&quot;:0,&quot;rounded&quot;:0};" vertex="1" parent="1">
          <mxGeometry x="-240" y="490" width="10" height="500" as="geometry" />
        </mxCell>
        <mxCell id="jwzx9WgDbF4AYH0GWY2g-42" value="" style="endArrow=classic;html=1;rounded=0;fontSize=12;startSize=8;endSize=8;curved=1;" edge="1" parent="1">
          <mxGeometry width="50" height="50" relative="1" as="geometry">
            <mxPoint x="-230" y="830" as="sourcePoint" />
            <mxPoint x="-0.5" y="830" as="targetPoint" />
          </mxGeometry>
        </mxCell>
        <mxCell id="jwzx9WgDbF4AYH0GWY2g-43" value="&lt;span style=&quot;text-align: left; white-space: nowrap; background-color: rgb(236, 236, 236);&quot;&gt;get_dane_wniosku(wniosek_id)&lt;/span&gt;" style="text;html=1;align=center;verticalAlign=middle;whiteSpace=wrap;rounded=0;" vertex="1" parent="1">
          <mxGeometry x="20" y="520" width="60" height="30" as="geometry" />
        </mxCell>
        <mxCell id="jwzx9WgDbF4AYH0GWY2g-44" value="&lt;span style=&quot;text-align: left; white-space: nowrap; background-color: rgb(236, 236, 236);&quot;&gt;zweryfikujZgodnoscZHarmonogramem (nazwa_inwestycji String)&lt;/span&gt;" style="text;html=1;align=center;verticalAlign=middle;whiteSpace=wrap;rounded=0;" vertex="1" parent="1">
          <mxGeometry x="-110" y="800" width="60" height="30" as="geometry" />
        </mxCell>
        <mxCell id="jwzx9WgDbF4AYH0GWY2g-45" style="edgeStyle=none;curved=1;rounded=0;orthogonalLoop=1;jettySize=auto;html=1;exitX=1;exitY=0.75;exitDx=0;exitDy=0;fontSize=12;startSize=8;endSize=8;" edge="1" parent="1" source="jwzx9WgDbF4AYH0GWY2g-44" target="jwzx9WgDbF4AYH0GWY2g-44">
          <mxGeometry relative="1" as="geometry" />
        </mxCell>
        <mxCell id="jwzx9WgDbF4AYH0GWY2g-46" value="" style="edgeStyle=segmentEdgeStyle;endArrow=classic;html=1;curved=0;rounded=0;endSize=8;startSize=8;fontSize=12;" edge="1" parent="1">
          <mxGeometry width="50" height="50" relative="1" as="geometry">
            <mxPoint x="10" y="970" as="sourcePoint" />
            <mxPoint x="60" y="970" as="targetPoint" />
            <Array as="points">
              <mxPoint x="10" y="920" />
              <mxPoint x="60" y="920" />
            </Array>
          </mxGeometry>
        </mxCell>
        <mxCell id="jwzx9WgDbF4AYH0GWY2g-49" value="&lt;span style=&quot;text-align: left; white-space: nowrap; background-color: rgb(236, 236, 236);&quot;&gt;zaktualizujStatusInwestycji(nazwa_inwestycji)&lt;/span&gt;" style="text;html=1;align=center;verticalAlign=middle;whiteSpace=wrap;rounded=0;" vertex="1" parent="1">
          <mxGeometry x="10" y="930" width="60" height="30" as="geometry" />
        </mxCell>
        <mxCell id="jwzx9WgDbF4AYH0GWY2g-50" value="" style="edgeStyle=segmentEdgeStyle;endArrow=classic;html=1;curved=0;rounded=0;endSize=8;startSize=8;fontSize=12;" edge="1" parent="1">
          <mxGeometry width="50" height="50" relative="1" as="geometry">
            <mxPoint x="-490" y="820" as="sourcePoint" />
            <mxPoint x="-440" y="820" as="targetPoint" />
            <Array as="points">
              <mxPoint x="-490" y="770" />
              <mxPoint x="-440" y="770" />
            </Array>
          </mxGeometry>
        </mxCell>
        <mxCell id="jwzx9WgDbF4AYH0GWY2g-52" value="" style="edgeStyle=segmentEdgeStyle;endArrow=classic;html=1;curved=0;rounded=0;endSize=8;startSize=8;fontSize=12;" edge="1" parent="1">
          <mxGeometry width="50" height="50" relative="1" as="geometry">
            <mxPoint x="-450" y="830" as="sourcePoint" />
            <mxPoint x="-490" y="830" as="targetPoint" />
            <Array as="points">
              <mxPoint x="-490" y="830" />
              <mxPoint x="-480" y="830" />
            </Array>
          </mxGeometry>
        </mxCell>
        <mxCell id="jwzx9WgDbF4AYH0GWY2g-55" value="" style="html=1;points=[[0,0,0,0,5],[0,1,0,0,-5],[1,0,0,0,5],[1,1,0,0,-5]];perimeter=orthogonalPerimeter;outlineConnect=0;targetShapes=umlLifeline;portConstraint=eastwest;newEdgeStyle={&quot;curved&quot;:0,&quot;rounded&quot;:0};" vertex="1" parent="1">
          <mxGeometry x="230" y="560" width="10" height="80" as="geometry" />
        </mxCell>
        <mxCell id="jwzx9WgDbF4AYH0GWY2g-56" value="&lt;span style=&quot;text-align: left; background-color: rgb(236, 236, 236);&quot;&gt;pobierzWniosek(wniosek_id int)&lt;/span&gt;" style="html=1;verticalAlign=bottom;endArrow=block;curved=0;rounded=0;entryX=0;entryY=0;entryDx=0;entryDy=5;fontSize=12;startSize=8;endSize=8;" edge="1" target="jwzx9WgDbF4AYH0GWY2g-55" parent="1">
          <mxGeometry relative="1" as="geometry">
            <mxPoint x="20" y="565" as="sourcePoint" />
          </mxGeometry>
        </mxCell>
        <mxCell id="jwzx9WgDbF4AYH0GWY2g-57" value="return" style="html=1;verticalAlign=bottom;endArrow=open;dashed=1;endSize=8;curved=0;rounded=0;exitX=0;exitY=1;exitDx=0;exitDy=-5;fontSize=12;" edge="1" source="jwzx9WgDbF4AYH0GWY2g-55" parent="1">
          <mxGeometry relative="1" as="geometry">
            <mxPoint x="20" y="635" as="targetPoint" />
          </mxGeometry>
        </mxCell>
        <mxCell id="jwzx9WgDbF4AYH0GWY2g-59" value="&lt;span style=&quot;font-style: italic; white-space: nowrap; background-color: rgb(236, 236, 236);&quot;&gt;Pracownik banku&lt;/span&gt;" style="shape=umlLifeline;perimeter=lifelinePerimeter;whiteSpace=wrap;html=1;container=0;dropTarget=0;collapsible=0;recursiveResize=0;outlineConnect=0;portConstraint=eastwest;newEdgeStyle={&quot;edgeStyle&quot;:&quot;elbowEdgeStyle&quot;,&quot;elbow&quot;:&quot;vertical&quot;,&quot;curved&quot;:0,&quot;rounded&quot;:0};" vertex="1" parent="1">
          <mxGeometry x="185" y="440" width="100" height="360" as="geometry" />
        </mxCell>
        <mxCell id="jwzx9WgDbF4AYH0GWY2g-60" value="" style="html=1;points=[];perimeter=orthogonalPerimeter;outlineConnect=0;targetShapes=umlLifeline;portConstraint=eastwest;newEdgeStyle={&quot;edgeStyle&quot;:&quot;elbowEdgeStyle&quot;,&quot;elbow&quot;:&quot;vertical&quot;,&quot;curved&quot;:0,&quot;rounded&quot;:0};" vertex="1" parent="jwzx9WgDbF4AYH0GWY2g-59">
          <mxGeometry x="45" y="70" width="10" height="290" as="geometry" />
        </mxCell>
        <mxCell id="jwzx9WgDbF4AYH0GWY2g-61" value="" style="html=1;points=[];perimeter=orthogonalPerimeter;outlineConnect=0;targetShapes=umlLifeline;portConstraint=eastwest;newEdgeStyle={&quot;edgeStyle&quot;:&quot;elbowEdgeStyle&quot;,&quot;elbow&quot;:&quot;vertical&quot;,&quot;curved&quot;:0,&quot;rounded&quot;:0};" vertex="1" parent="jwzx9WgDbF4AYH0GWY2g-59">
          <mxGeometry x="50" y="120" width="10" height="80" as="geometry" />
        </mxCell>
        <mxCell id="jwzx9WgDbF4AYH0GWY2g-62" value="zweryfikujHarmonogram (&lt;span style=&quot;text-align: left; background-color: rgb(236, 236, 236);&quot;&gt;wniosek_id&lt;/span&gt;&amp;nbsp;int)" style="html=1;verticalAlign=bottom;endArrow=block;curved=0;rounded=0;entryX=0;entryY=0;entryDx=0;entryDy=5;fontSize=12;startSize=8;endSize=8;" edge="1" parent="1">
          <mxGeometry relative="1" as="geometry">
            <mxPoint x="10" y="620" as="sourcePoint" />
            <mxPoint x="220" y="620" as="targetPoint" />
          </mxGeometry>
        </mxCell>
        <mxCell id="jwzx9WgDbF4AYH0GWY2g-63" value="" style="edgeStyle=segmentEdgeStyle;endArrow=classic;html=1;curved=0;rounded=0;endSize=8;startSize=8;fontSize=12;" edge="1" parent="1">
          <mxGeometry width="50" height="50" relative="1" as="geometry">
            <mxPoint x="245" y="690" as="sourcePoint" />
            <mxPoint x="295" y="690" as="targetPoint" />
            <Array as="points">
              <mxPoint x="245" y="640" />
              <mxPoint x="295" y="640" />
            </Array>
          </mxGeometry>
        </mxCell>
        <mxCell id="jwzx9WgDbF4AYH0GWY2g-64" value="&lt;span style=&quot;caret-color: rgb(0, 0, 0); color: rgb(0, 0, 0); font-family: Helvetica; font-size: 12px; font-style: normal; font-variant-caps: normal; font-weight: 400; letter-spacing: normal; text-align: left; text-indent: 0px; text-transform: none; white-space: nowrap; word-spacing: 0px; -webkit-text-stroke-width: 0px; background-color: rgb(236, 236, 236); text-decoration: none; float: none; display: inline !important;&quot;&gt;zweryfikujDokumenty(dokumenty String)&lt;/span&gt;" style="text;align=center;fontStyle=1;verticalAlign=middle;spacingLeft=3;spacingRight=3;strokeColor=none;rotatable=0;points=[[0,0.5],[1,0.5]];portConstraint=eastwest;html=1;" vertex="1" parent="1">
          <mxGeometry x="210" y="660" width="80" height="30" as="geometry" />
        </mxCell>
        <mxCell id="jwzx9WgDbF4AYH0GWY2g-65" value="&lt;span style=&quot;font-style: italic; white-space: nowrap; background-color: rgb(236, 236, 236);&quot;&gt;KRS&lt;/span&gt;" style="shape=umlLifeline;perimeter=lifelinePerimeter;whiteSpace=wrap;html=1;container=0;dropTarget=0;collapsible=0;recursiveResize=0;outlineConnect=0;portConstraint=eastwest;newEdgeStyle={&quot;edgeStyle&quot;:&quot;elbowEdgeStyle&quot;,&quot;elbow&quot;:&quot;vertical&quot;,&quot;curved&quot;:0,&quot;rounded&quot;:0};" vertex="1" parent="1">
          <mxGeometry x="330" y="330" width="100" height="300" as="geometry" />
        </mxCell>
        <mxCell id="jwzx9WgDbF4AYH0GWY2g-66" value="" style="html=1;points=[];perimeter=orthogonalPerimeter;outlineConnect=0;targetShapes=umlLifeline;portConstraint=eastwest;newEdgeStyle={&quot;edgeStyle&quot;:&quot;elbowEdgeStyle&quot;,&quot;elbow&quot;:&quot;vertical&quot;,&quot;curved&quot;:0,&quot;rounded&quot;:0};" vertex="1" parent="jwzx9WgDbF4AYH0GWY2g-65">
          <mxGeometry x="45" y="70" width="10" height="190" as="geometry" />
        </mxCell>
        <mxCell id="jwzx9WgDbF4AYH0GWY2g-67" value="" style="html=1;points=[];perimeter=orthogonalPerimeter;outlineConnect=0;targetShapes=umlLifeline;portConstraint=eastwest;newEdgeStyle={&quot;edgeStyle&quot;:&quot;elbowEdgeStyle&quot;,&quot;elbow&quot;:&quot;vertical&quot;,&quot;curved&quot;:0,&quot;rounded&quot;:0};" vertex="1" parent="jwzx9WgDbF4AYH0GWY2g-65">
          <mxGeometry x="50" y="120" width="10" height="80" as="geometry" />
        </mxCell>
        <mxCell id="jwzx9WgDbF4AYH0GWY2g-68" value="&lt;span style=&quot;font-style: italic; white-space: nowrap; background-color: rgb(236, 236, 236);&quot;&gt;KRZ&lt;/span&gt;" style="shape=umlLifeline;perimeter=lifelinePerimeter;whiteSpace=wrap;html=1;container=0;dropTarget=0;collapsible=0;recursiveResize=0;outlineConnect=0;portConstraint=eastwest;newEdgeStyle={&quot;edgeStyle&quot;:&quot;elbowEdgeStyle&quot;,&quot;elbow&quot;:&quot;vertical&quot;,&quot;curved&quot;:0,&quot;rounded&quot;:0};" vertex="1" parent="1">
          <mxGeometry x="360" y="620" width="100" height="300" as="geometry" />
        </mxCell>
        <mxCell id="jwzx9WgDbF4AYH0GWY2g-69" value="" style="html=1;points=[];perimeter=orthogonalPerimeter;outlineConnect=0;targetShapes=umlLifeline;portConstraint=eastwest;newEdgeStyle={&quot;edgeStyle&quot;:&quot;elbowEdgeStyle&quot;,&quot;elbow&quot;:&quot;vertical&quot;,&quot;curved&quot;:0,&quot;rounded&quot;:0};" vertex="1" parent="jwzx9WgDbF4AYH0GWY2g-68">
          <mxGeometry x="45" y="70" width="10" height="190" as="geometry" />
        </mxCell>
        <mxCell id="jwzx9WgDbF4AYH0GWY2g-70" value="" style="html=1;points=[];perimeter=orthogonalPerimeter;outlineConnect=0;targetShapes=umlLifeline;portConstraint=eastwest;newEdgeStyle={&quot;edgeStyle&quot;:&quot;elbowEdgeStyle&quot;,&quot;elbow&quot;:&quot;vertical&quot;,&quot;curved&quot;:0,&quot;rounded&quot;:0};" vertex="1" parent="jwzx9WgDbF4AYH0GWY2g-68">
          <mxGeometry x="50" y="120" width="10" height="80" as="geometry" />
        </mxCell>
        <mxCell id="jwzx9WgDbF4AYH0GWY2g-71" value="&lt;span style=&quot;text-align: left; background-color: rgb(236, 236, 236);&quot;&gt;wyslijZapytanieDoKRS (&lt;/span&gt;&lt;span style=&quot;text-align: left; background-color: rgb(236, 236, 236);&quot;&gt;&amp;nbsp;nazwa_dewelopera String)&lt;/span&gt;" style="html=1;verticalAlign=bottom;endArrow=block;curved=0;rounded=0;fontSize=12;startSize=8;endSize=8;" edge="1" parent="1">
          <mxGeometry y="9" relative="1" as="geometry">
            <mxPoint x="230" y="549" as="sourcePoint" />
            <mxPoint x="370" y="549" as="targetPoint" />
            <mxPoint as="offset" />
          </mxGeometry>
        </mxCell>
        <mxCell id="jwzx9WgDbF4AYH0GWY2g-72" value="&lt;span style=&quot;text-align: left; background-color: rgb(236, 236, 236);&quot;&gt;wyslijZapytanieDoKRZ (&lt;/span&gt;&lt;span style=&quot;text-align: left; background-color: rgb(236, 236, 236);&quot;&gt;nazwa_dewelopera String)&lt;/span&gt;" style="html=1;verticalAlign=bottom;endArrow=block;curved=0;rounded=0;fontSize=12;startSize=8;endSize=8;" edge="1" parent="1">
          <mxGeometry y="20" relative="1" as="geometry">
            <mxPoint x="250" y="750" as="sourcePoint" />
            <mxPoint x="390" y="750" as="targetPoint" />
            <mxPoint as="offset" />
          </mxGeometry>
        </mxCell>
        <mxCell id="jwzx9WgDbF4AYH0GWY2g-73" value="" style="edgeStyle=segmentEdgeStyle;endArrow=classic;html=1;curved=0;rounded=0;endSize=8;startSize=8;fontSize=12;" edge="1" parent="1">
          <mxGeometry width="50" height="50" relative="1" as="geometry">
            <mxPoint x="245" y="820" as="sourcePoint" />
            <mxPoint x="295" y="820" as="targetPoint" />
            <Array as="points">
              <mxPoint x="245" y="770" />
              <mxPoint x="295" y="770" />
            </Array>
          </mxGeometry>
        </mxCell>
        <mxCell id="jwzx9WgDbF4AYH0GWY2g-74" value="" style="edgeStyle=segmentEdgeStyle;endArrow=classic;html=1;curved=0;rounded=0;endSize=8;startSize=8;fontSize=12;" edge="1" parent="1">
          <mxGeometry width="50" height="50" relative="1" as="geometry">
            <mxPoint x="290" y="700" as="sourcePoint" />
            <mxPoint x="250" y="700" as="targetPoint" />
            <Array as="points">
              <mxPoint x="250" y="700" />
              <mxPoint x="260" y="700" />
            </Array>
          </mxGeometry>
        </mxCell>
        <mxCell id="jwzx9WgDbF4AYH0GWY2g-75" value="" style="edgeStyle=segmentEdgeStyle;endArrow=classic;html=1;curved=0;rounded=0;endSize=8;startSize=8;fontSize=12;" edge="1" parent="1" target="jwzx9WgDbF4AYH0GWY2g-76">
          <mxGeometry width="50" height="50" relative="1" as="geometry">
            <mxPoint x="290" y="820" as="sourcePoint" />
            <mxPoint x="250" y="820" as="targetPoint" />
            <Array as="points">
              <mxPoint x="250" y="820" />
              <mxPoint x="260" y="820" />
            </Array>
          </mxGeometry>
        </mxCell>
        <mxCell id="jwzx9WgDbF4AYH0GWY2g-76" value="&lt;span style=&quot;font-weight: 400; text-align: left; background-color: rgb(236, 236, 236);&quot;&gt;podejmijDecyzje()&lt;/span&gt;" style="text;align=center;fontStyle=1;verticalAlign=middle;spacingLeft=3;spacingRight=3;strokeColor=none;rotatable=0;points=[[0,0.5],[1,0.5]];portConstraint=eastwest;html=1;" vertex="1" parent="1">
          <mxGeometry x="230" y="777" width="80" height="23" as="geometry" />
        </mxCell>
      </root>
    </mxGraphModel>
  </diagram>
</mxfile>
